# xmcd
#
# Track frame offsets: 
#        151
#        25365
#        41548
#        63002
#        76169
#        94496
#        110019
#        119674
#        140095
#        143142
#        157807
#        171004
#        190278
#        203996
#        218633
#        242914
#        261944
#
# Disc length: 3766 seconds
#
# Revision: 0
# Processed by: cddbd v1.5.2PL0 Copyright (c) Steve Scherf et al.
# Submitted via: ExactAudioCopy v1.1
#
DISCID=f80eb411
DTITLE=Sankofa - Billy Bossij Presents...The Igloo Mix
DYEAR=1900
DGENRE=
TTITLE0=Beecher, H.W., 277
TTITLE1=Bektashis, 63, 652
TTITLE2=Bellardi, W., 180 f.
TTITLE3=Beatjackolantern
TTITLE4=Bellarmino, R., 113, 227
TTITLE5=Benedict of Nursia, St., 106 ff.
TTITLE6=Benedictine guidance of souls,
TTITLE7=Benevolence, 50, 58, 66
TTITLE8=Acapell
TTITLE9=Benoit, J.D., 198 ff., 216
TTITLE10=Disposables
TTITLE11=Ben Sirach, 7, 14
TTITLE12=Bot Scores
TTITLE13=Berdyaev, N., 311 f.
TTITLE14=Random Della Wheeze
TTITLE15=Bereavement, 25 f., 31, 34
TTITLE16=Batjackolantern II
EXTD=
EXTT0=
EXTT1=
EXTT2=
EXTT3=
EXTT4=
EXTT5=
EXTT6=
EXTT7=
EXTT8=
EXTT9=
EXTT10=
EXTT11=
EXTT12=
EXTT13=
EXTT14=
EXTT15=
EXTT16=
PLAYORDER=
